<svg id="Icons" height="512" viewBox="0 0 74 74" width="512" xmlns="http://www.w3.org/2000/svg"><path d="m9.182 66.608h-6.182a1 1 0 0 1 -1-1v-28.848a1 1 0 0 1 1-1h6.182a5.127 5.127 0 0 1 5.118 5.121v20.606a5.127 5.127 0 0 1 -5.118 5.121zm-5.182-2h5.182a3.125 3.125 0 0 0 3.118-3.121v-20.606a3.125 3.125 0 0 0 -3.118-3.121h-5.182z"/><path d="m45.061 55.586h-17.337a1 1 0 1 1 0-2h17.337a2.732 2.732 0 1 0 0-5.464h-9.149a1 1 0 0 1 -.752-.341 13.78 13.78 0 0 0 -10.366-4.7h-11.494a1 1 0 0 1 0-2h11.494a15.78 15.78 0 0 1 11.562 5.041h8.7a4.732 4.732 0 1 1 0 9.464z"/><path d="m36.819 68.5a20.092 20.092 0 0 1 -7.264-1.359l-16.613-6.441a1 1 0 0 1 .723-1.865l16.614 6.44a18.083 18.083 0 0 0 15.008-.88l24.452-12.95a8.374 8.374 0 0 0 -8.627-1.8l-13.05 4.77a1 1 0 1 1 -.687-1.879l13.05-4.77a10.377 10.377 0 0 1 10.865 2.4l.239.239a1.61 1.61 0 0 1 -.384 2.561l-24.922 13.2a20.082 20.082 0 0 1 -9.404 2.334z"/><path d="m38.885 38.64a1 1 0 0 1 -.653-.243c-.615-.531-15.078-13.108-15.711-22.29a9.944 9.944 0 0 1 9.741-10.607 9.326 9.326 0 0 1 6.623 2.82 9.328 9.328 0 0 1 6.623-2.82 9.944 9.944 0 0 1 9.742 10.607c-.634 9.182-15.1 21.758-15.712 22.29a1 1 0 0 1 -.653.243zm-6.623-31.14a7.748 7.748 0 0 0 -5.615 2.509 7.866 7.866 0 0 0 -2.131 5.961c.5 7.317 11.543 17.767 14.37 20.33 2.826-2.562 13.865-13.013 14.37-20.33a7.864 7.864 0 0 0 -2.131-5.96 7.748 7.748 0 0 0 -5.617-2.51 7.454 7.454 0 0 0 -5.838 2.946 1 1 0 0 1 -.786.381 1 1 0 0 1 -.786-.381 7.453 7.453 0 0 0 -5.836-2.946z"/><path d="m50.537 41.573a1 1 0 0 1 -.653-.243 74.554 74.554 0 0 1 -7.237-7.353 1 1 0 1 1 1.523-1.3 74.547 74.547 0 0 0 6.367 6.551c2.586-2.353 11.985-11.312 12.417-17.575a6.747 6.747 0 0 0 -1.83-5.108 6.537 6.537 0 0 0 -6.7-1.847 1 1 0 1 1 -.626-1.9 8.566 8.566 0 0 1 8.789 2.381 8.726 8.726 0 0 1 2.363 6.61c-.555 8.06-13.22 19.071-13.758 19.536a1 1 0 0 1 -.655.248z"/></svg>